<?xml version="1.0" encoding="UTF-8"?>
<svg xmlns="http://www.w3.org/2000/svg" xmlns:xlink="http://www.w3.org/1999/xlink" width="100px" height="100px" viewBox="0 0 100 100" version="1.1">
<g id="surface1">
<rect x="0" y="0" width="100" height="100" style="fill:rgb(99.607843%,99.607843%,99.607843%);fill-opacity:1;stroke:none;"/>
<path style=" stroke:none;fill-rule:nonzero;fill:rgb(19.607843%,16.470589%,28.627452%);fill-opacity:1;" d="M 32.9375 58.6875 C 33.222656 58.394531 34.007812 58.714844 34.4375 58.625 C 34.867188 58.535156 35.519531 58.660156 36 58.625 C 36.480469 58.589844 37.058594 58.632812 37.5625 58.625 C 38.066406 58.617188 38.683594 58.617188 39.1875 58.625 C 39.691406 58.632812 40.261719 58.589844 40.75 58.625 C 41.238281 58.660156 41.859375 58.535156 42.3125 58.625 C 42.765625 58.714844 43.550781 58.402344 43.875 58.6875 C 44.160156 58.9375 44.066406 59.730469 44.328125 60.046875 C 44.585938 60.367188 44.675781 60.851562 44.953125 61.171875 C 45.230469 61.492188 45.480469 61.777344 45.796875 62.078125 C 46.113281 62.378906 46.394531 62.628906 46.769531 62.855469 C 47.144531 63.082031 47.507812 63.273438 47.9375 63.4375 C 48.363281 63.605469 48.878906 63.71875 49.359375 63.765625 C 49.84375 63.808594 50.554688 63.847656 51.046875 63.796875 C 51.542969 63.75 52.019531 63.617188 52.457031 63.457031 C 52.894531 63.300781 53.265625 63.125 53.640625 62.890625 C 54.015625 62.65625 54.316406 62.433594 54.640625 62.140625 C 54.964844 61.847656 55.179688 61.53125 55.453125 61.203125 C 55.726562 60.875 55.894531 60.496094 56.125 60.125 C 56.359375 59.757812 56.363281 59.1875 56.5625 58.8125 C 56.769531 58.421875 57.484375 58.675781 57.9375 58.625 C 58.390625 58.574219 59.007812 58.644531 59.5 58.625 C 59.992188 58.605469 60.554688 58.625 61.0625 58.625 C 61.570312 58.625 62.183594 58.609375 62.6875 58.625 C 63.191406 58.640625 63.769531 58.582031 64.25 58.625 C 64.730469 58.667969 65.382812 58.527344 65.8125 58.625 C 66.242188 58.722656 67.09375 58.390625 67.375 58.6875 C 67.496094 59.289062 67.714844 59.953125 68.015625 60.484375 C 68.3125 61.019531 68.628906 61.4375 69.046875 61.890625 C 69.464844 62.34375 69.90625 62.625 70.421875 62.953125 C 70.941406 63.277344 71.492188 63.484375 72.109375 63.640625 C 72.730469 63.792969 73.59375 63.917969 74.25 63.8125 C 74.90625 63.707031 75.636719 63.617188 76.207031 63.332031 C 76.777344 63.046875 77.261719 62.890625 77.734375 62.484375 C 78.207031 62.078125 78.523438 61.707031 78.921875 61.234375 C 79.320312 60.761719 79.53125 60.226562 79.765625 59.640625 C 80 59.050781 80.171875 58.296875 80.1875 57.625 C 80.203125 56.953125 80.09375 56.132812 79.921875 55.515625 C 79.753906 54.894531 79.433594 54.40625 79.140625 53.859375 C 78.847656 53.3125 78.371094 53.070312 77.984375 52.578125 C 77.597656 52.085938 77.015625 52.011719 76.566406 51.621094 C 76.121094 51.226562 75.03125 51.464844 74.9375 50.8125 C 74.84375 50.160156 74.988281 49.097656 74.9375 48.375 C 74.886719 47.652344 74.976562 46.738281 74.9375 46 C 78.113281 45.566406 80.394531 42.289062 80.171875 39.203125 C 79.953125 36.113281 77.3125 33.25 74.125 33.25 C 73.855469 33.25 73.582031 33.246094 73.3125 33.25 C 72.808594 33.261719 72.222656 33.378906 71.765625 33.515625 C 71.304688 33.648438 70.917969 33.855469 70.515625 34.078125 C 70.109375 34.296875 69.804688 34.535156 69.453125 34.828125 C 69.101562 35.121094 68.855469 35.386719 68.558594 35.746094 C 68.257812 36.101562 68.152344 36.5 67.890625 36.890625 C 67.632812 37.28125 67.632812 37.8125 67.421875 38.234375 C 67.214844 38.660156 66.367188 38.382812 65.875 38.4375 C 65.382812 38.492188 64.613281 38.414062 64.0625 38.4375 C 63.511719 38.460938 62.820312 38.433594 62.25 38.4375 C 61.679688 38.441406 61.007812 38.445312 60.4375 38.4375 C 59.867188 38.429688 59.175781 38.464844 58.625 38.4375 C 58.074219 38.410156 57.308594 38.503906 56.8125 38.4375 C 56.320312 38.367188 56.480469 37.609375 56.246094 37.253906 C 56.007812 36.898438 55.914062 36.402344 55.621094 36.066406 C 55.328125 35.734375 55.152344 35.375 54.796875 35.078125 C 54.441406 34.78125 54.191406 34.496094 53.792969 34.269531 C 53.398438 34.039062 53.054688 33.796875 52.605469 33.644531 C 52.15625 33.492188 51.679688 33.3125 51.1875 33.25 C 50.695312 33.1875 50.050781 33.179688 49.5625 33.25 C 49.074219 33.320312 48.515625 33.410156 48.066406 33.566406 C 47.621094 33.726562 47.222656 33.910156 46.828125 34.140625 C 46.433594 34.371094 46.144531 34.636719 45.796875 34.921875 C 45.449219 35.207031 45.265625 35.582031 44.957031 35.894531 C 44.648438 36.203125 44.570312 36.734375 44.308594 37.058594 C 44.042969 37.382812 44.144531 38.117188 43.875 38.375 C 43.574219 38.660156 42.8125 38.351562 42.375 38.4375 C 41.9375 38.523438 41.292969 38.402344 40.8125 38.4375 C 40.332031 38.472656 39.75 38.425781 39.25 38.4375 C 38.75 38.449219 38.191406 38.445312 37.6875 38.4375 C 37.183594 38.429688 36.617188 38.472656 36.125 38.4375 C 35.632812 38.402344 35.027344 38.519531 34.5625 38.4375 C 34.097656 38.355469 33.359375 38.640625 33 38.375 C 32.328125 35.304688 29.335938 32.960938 26.128906 33.191406 C 22.925781 33.421875 20.359375 36.152344 20.183594 39.308594 C 20.003906 42.464844 22.203125 45.46875 25.375 46 C 25.375 47.6875 25.375 49.375 25.375 51.0625 C 24.949219 51.183594 24.464844 51.332031 24.0625 51.5 C 23.660156 51.671875 23.3125 51.84375 22.953125 52.078125 C 22.59375 52.3125 22.324219 52.585938 22.015625 52.890625 C 21.707031 53.195312 21.496094 53.457031 21.246094 53.808594 C 20.992188 54.160156 20.84375 54.507812 20.671875 54.921875 C 20.5 55.339844 20.324219 55.78125 20.25 56.25 C 20.171875 56.71875 20.183594 57.382812 20.1875 57.875 C 20.191406 58.367188 20.300781 58.933594 20.441406 59.371094 C 20.582031 59.808594 20.753906 60.164062 20.953125 60.546875 C 21.152344 60.929688 21.359375 61.234375 21.640625 61.546875 C 21.921875 61.859375 22.203125 62.136719 22.519531 62.417969 C 22.832031 62.703125 23.175781 62.851562 23.546875 63.078125 C 23.921875 63.300781 24.296875 63.4375 24.734375 63.578125 C 25.171875 63.714844 25.726562 63.804688 26.207031 63.855469 C 26.691406 63.90625 27.28125 63.800781 27.75 63.75 C 28.21875 63.699219 28.691406 63.507812 29.109375 63.359375 C 29.53125 63.214844 29.835938 62.976562 30.207031 62.769531 C 30.574219 62.5625 30.84375 62.320312 31.140625 62.015625 C 31.4375 61.710938 31.640625 61.367188 31.941406 61.066406 C 32.242188 60.765625 32.253906 60.257812 32.515625 59.953125 C 32.773438 59.644531 32.695312 58.9375 32.9375 58.6875 Z M 32.9375 58.6875 "/>
<path style=" stroke:none;fill-rule:nonzero;fill:rgb(52.549022%,50.980395%,56.470591%);fill-opacity:1;" d="M 73.3125 33.25 C 73.582031 33.246094 73.855469 33.25 74.125 33.25 C 73.871094 33.226562 73.574219 33.21875 73.3125 33.25 Z M 73.3125 33.25 "/>
<path style=" stroke:none;fill-rule:nonzero;fill:rgb(31.764707%,22.745098%,19.607843%);fill-opacity:1;" d="M 23 35.125 C 23.859375 34.367188 25.164062 33.980469 26.25 33.875 C 25.632812 33.875 24.890625 33.980469 24.378906 34.253906 C 23.867188 34.53125 23.324219 34.597656 23 35.125 Z M 23 35.125 "/>
<path style=" stroke:none;fill-rule:nonzero;fill:rgb(97.254902%,73.333335%,29.411766%);fill-opacity:1;" d="M 23 35.125 C 22.988281 35.144531 22.957031 35.171875 22.9375 35.1875 C 22.097656 35.804688 21.367188 36.933594 21.0625 37.875 C 21 38.167969 20.96875 38.46875 20.875 38.75 C 20.777344 39.707031 21.039062 40.53125 21.0625 41.4375 C 21.0625 41.4375 21.058594 41.46875 21.0625 41.5 C 21.296875 41.792969 21.394531 42.222656 21.5625 42.5625 C 21.582031 42.574219 21.613281 42.605469 21.625 42.625 C 21.953125 43.089844 22.34375 43.464844 22.703125 43.921875 C 23.0625 44.378906 23.851562 44.5 24.125 44.9375 C 24.125 44.9375 24.15625 44.933594 24.1875 44.9375 C 24.519531 44.992188 25.25 45.191406 25.5 45.375 C 25.691406 45.355469 25.828125 45.421875 26 45.4375 C 26.429688 45.476562 26.878906 45.4375 27.3125 45.4375 C 27.34375 45.4375 27.476562 45.417969 27.5 45.4375 C 27.734375 45.386719 27.972656 45.257812 28.25 45.25 C 28.25 45.25 28.28125 45.253906 28.3125 45.25 C 28.804688 44.828125 29.691406 44.738281 30.171875 44.234375 C 30.652344 43.730469 31.199219 43.332031 31.5625 42.75 C 31.648438 42.566406 31.726562 42.375 31.8125 42.1875 C 31.964844 41.863281 32.101562 41.535156 32.1875 41.1875 C 32.261719 40.886719 32.347656 40.554688 32.375 40.25 C 32.40625 39.875 32.40625 39.4375 32.375 39.0625 C 32.332031 38.566406 32.152344 38.109375 32.0625 37.625 C 31.921875 37.253906 31.660156 36.777344 31.4375 36.4375 C 30.738281 35.6875 30.339844 35.097656 29.390625 34.609375 C 28.4375 34.121094 27.375 33.875 26.25 33.875 C 25.164062 33.980469 23.859375 34.367188 23 35.125 Z M 23 35.125 "/>
<path style=" stroke:none;fill-rule:nonzero;fill:rgb(25.490198%,72.156864%,76.862746%);fill-opacity:1;" d="M 44.4375 39.0625 C 44.40625 39.402344 44.417969 39.78125 44.4375 40.125 C 44.59375 43.042969 47 44.957031 49.6875 45.4375 C 50.007812 45.429688 50.425781 45.300781 50.75 45.4375 C 50.78125 45.4375 50.84375 45.441406 50.875 45.4375 C 53.820312 45.03125 56.167969 42.464844 56.0625 39.4375 C 55.957031 36.410156 53.402344 33.988281 50.4375 33.875 C 47.472656 33.761719 44.699219 36.109375 44.4375 39.0625 Z M 44.4375 39.0625 "/>
<path style=" stroke:none;fill-rule:nonzero;fill:rgb(26.274511%,53.725493%,80.000001%);fill-opacity:1;" d="M 74.25 33.875 C 71.144531 33.5 68.207031 36.066406 67.9375 39.125 C 67.667969 42.183594 70.046875 45.230469 73.1875 45.4375 C 76.328125 45.644531 79.207031 43.371094 79.5 40.1875 C 79.792969 37.003906 77.316406 34.246094 74.25 33.875 Z M 74.25 33.875 "/>
<path style=" stroke:none;fill-rule:nonzero;fill:rgb(34.509805%,25.098041%,19.607843%);fill-opacity:1;" d="M 21.0625 37.875 C 21.367188 36.933594 22.097656 35.804688 22.9375 35.1875 C 22.589844 35.160156 22.085938 35.976562 21.796875 36.296875 C 21.511719 36.621094 21.15625 37.4375 21.0625 37.875 Z M 21.0625 37.875 "/>
<path style=" stroke:none;fill-rule:nonzero;fill:rgb(30.980393%,21.568628%,20%);fill-opacity:1;" d="M 32.0625 37.625 C 31.976562 37.164062 31.753906 36.777344 31.4375 36.4375 C 31.660156 36.777344 31.921875 37.253906 32.0625 37.625 Z M 32.0625 37.625 "/>
<path style=" stroke:none;fill-rule:nonzero;fill:rgb(62.352943%,61.176473%,67.058825%);fill-opacity:1;" d="M 43.875 38.375 C 43.355469 38.375 42.832031 38.375 42.3125 38.375 C 41.792969 38.375 41.269531 38.378906 40.75 38.375 C 40.230469 38.371094 39.703125 38.382812 39.1875 38.375 C 38.671875 38.367188 38.136719 38.394531 37.625 38.375 C 37.113281 38.355469 36.558594 38.414062 36.0625 38.375 C 35.566406 38.335938 34.96875 38.464844 34.5 38.375 C 34.03125 38.285156 33.40625 38.582031 33 38.375 C 33.359375 38.640625 34.097656 38.355469 34.5625 38.4375 C 35.027344 38.519531 35.632812 38.402344 36.125 38.4375 C 36.617188 38.472656 37.183594 38.429688 37.6875 38.4375 C 38.191406 38.445312 38.75 38.449219 39.25 38.4375 C 39.75 38.425781 40.332031 38.472656 40.8125 38.4375 C 41.292969 38.402344 41.9375 38.523438 42.375 38.4375 C 42.8125 38.351562 43.574219 38.660156 43.875 38.375 Z M 43.875 38.375 "/>
<path style=" stroke:none;fill-rule:nonzero;fill:rgb(30.19608%,21.960784%,18.431373%);fill-opacity:1;" d="M 21.0625 41.4375 C 21.039062 40.53125 20.777344 39.707031 20.875 38.75 C 20.660156 39.410156 20.570312 40.863281 21.0625 41.4375 Z M 21.0625 41.4375 "/>
<path style=" stroke:none;fill-rule:nonzero;fill:rgb(10.980392%,18.039216%,29.803923%);fill-opacity:1;" d="M 33 39.125 C 33 39.121094 33.0625 39.125 33.0625 39.125 C 33.40625 38.871094 34.042969 39.132812 34.5 39.0625 C 34.957031 38.992188 35.574219 39.089844 36.0625 39.0625 C 36.550781 39.035156 37.128906 39.070312 37.625 39.0625 C 38.121094 39.054688 38.632812 39.050781 39.125 39.0625 C 39.617188 39.074219 40.210938 39.023438 40.6875 39.0625 C 41.164062 39.101562 41.820312 38.972656 42.25 39.0625 C 42.679688 39.152344 43.472656 38.835938 43.75 39.125 C 43.773438 39.382812 43.828125 39.933594 43.6875 40.125 C 43.671875 40.144531 43.6875 40.1875 43.6875 40.1875 C 43.792969 40.164062 44.035156 39.113281 43.730469 39.019531 C 43.425781 38.925781 42.765625 39.027344 42.375 39 C 41.984375 38.972656 41.421875 39.011719 41 39 C 40.578125 38.988281 40.058594 39.003906 39.625 39 C 39.191406 38.996094 38.746094 39 38.3125 39 C 37.878906 39 37.363281 38.992188 36.9375 39 C 36.511719 39.007812 35.957031 38.980469 35.5625 39 C 35.167969 39.019531 34.507812 38.953125 34.1875 39 C 33.867188 39.046875 33.0625 38.828125 33 39.125 Z M 33 39.125 "/>
<path style=" stroke:none;fill-rule:nonzero;fill:rgb(33.333334%,23.529412%,14.901961%);fill-opacity:1;" d="M 32.375 40.25 C 32.449219 39.886719 32.449219 39.433594 32.375 39.0625 C 32.40625 39.4375 32.40625 39.875 32.375 40.25 Z M 32.375 40.25 "/>
<path style=" stroke:none;fill-rule:nonzero;fill:rgb(18.82353%,43.529412%,51.764709%);fill-opacity:1;" d="M 33.0625 39.125 C 36.605469 39.125 40.144531 39.125 43.6875 39.125 C 43.71875 39.125 43.75 39.125 43.75 39.125 C 43.472656 38.835938 42.679688 39.152344 42.25 39.0625 C 41.820312 38.972656 41.164062 39.101562 40.6875 39.0625 C 40.210938 39.023438 39.617188 39.074219 39.125 39.0625 C 38.632812 39.050781 38.121094 39.054688 37.625 39.0625 C 37.128906 39.070312 36.550781 39.035156 36.0625 39.0625 C 35.574219 39.089844 34.957031 38.992188 34.5 39.0625 C 34.042969 39.132812 33.40625 38.871094 33.0625 39.125 Z M 33.0625 39.125 "/>
<path style=" stroke:none;fill-rule:nonzero;fill:rgb(12.156863%,26.274511%,36.470589%);fill-opacity:1;" d="M 44.4375 40.125 C 44.417969 39.78125 44.40625 39.402344 44.4375 39.0625 C 44.371094 39.398438 44.382812 39.785156 44.4375 40.125 Z M 44.4375 40.125 "/>
<path style=" stroke:none;fill-rule:nonzero;fill:rgb(18.82353%,34.509805%,54.509807%);fill-opacity:1;" d="M 56.6875 39.125 C 57.175781 38.910156 57.898438 39.222656 58.4375 39.125 C 58.976562 39.027344 59.625 39.167969 60.1875 39.125 C 60.75 39.082031 61.363281 39.144531 61.9375 39.125 C 62.511719 39.105469 63.109375 39.132812 63.6875 39.125 C 64.265625 39.117188 64.855469 39.128906 65.4375 39.125 C 66.019531 39.121094 66.605469 39.125 67.1875 39.125 C 67.21875 39.125 67.25 39.125 67.25 39.125 C 67.25 39.09375 67.25 39.0625 67.25 39.0625 C 66.804688 39.023438 66.320312 39.082031 65.875 39.0625 C 65.429688 39.042969 65.003906 39.070312 64.5625 39.0625 C 64.121094 39.054688 63.6875 39.0625 63.25 39.0625 C 62.8125 39.0625 62.371094 39.058594 61.9375 39.0625 C 61.503906 39.066406 60.984375 39.046875 60.5625 39.0625 C 60.140625 39.078125 59.644531 39.03125 59.25 39.0625 C 58.855469 39.09375 58.273438 38.988281 57.9375 39.0625 C 57.601562 39.136719 56.855469 38.867188 56.6875 39.125 Z M 56.6875 39.125 "/>
<path style=" stroke:none;fill-rule:nonzero;fill:rgb(12.156863%,20%,36.862746%);fill-opacity:1;" d="M 67.25 39.125 C 67.25 39.457031 67.25 39.792969 67.25 40.125 C 63.855469 40.125 60.457031 40.125 57.0625 40.125 C 56.960938 40.113281 56.851562 40.132812 56.75 40.125 C 56.710938 39.84375 56.832031 39.480469 56.6875 39.25 C 56.6875 39.78125 56.511719 40.289062 57.125 40.1875 C 57.738281 40.085938 58.175781 40.230469 58.75 40.1875 C 59.324219 40.144531 59.820312 40.203125 60.375 40.1875 C 60.929688 40.171875 61.453125 40.183594 62 40.1875 C 62.546875 40.191406 63.082031 40.164062 63.625 40.1875 C 64.167969 40.210938 64.714844 40.128906 65.25 40.1875 C 65.785156 40.246094 66.347656 40.050781 66.875 40.1875 C 67.402344 40.324219 67.519531 39.320312 67.25 39.0625 C 67.25 39.0625 67.25 39.09375 67.25 39.125 Z M 67.25 39.125 "/>
<path style=" stroke:none;fill-rule:nonzero;fill:rgb(10.588235%,23.921569%,33.725491%);fill-opacity:1;" d="M 43.6875 40.1875 C 43.6875 40.1875 43.671875 40.144531 43.6875 40.125 C 42.070312 39.980469 40.441406 40.179688 38.8125 40.125 C 37.183594 40.070312 35.507812 40.125 33.875 40.125 C 33.605469 40.125 33.332031 40.125 33.0625 40.125 C 33.0625 39.792969 33.0625 39.457031 33.0625 39.125 C 33.0625 39.125 33 39.121094 33 39.125 C 32.945312 39.75 32.949219 40.285156 33.625 40.1875 C 34.300781 40.089844 34.699219 40.230469 35.3125 40.1875 C 35.925781 40.144531 36.414062 40.210938 37 40.1875 C 37.585938 40.164062 38.117188 40.199219 38.6875 40.1875 C 39.257812 40.175781 39.8125 40.203125 40.375 40.1875 C 40.9375 40.171875 41.507812 40.210938 42.0625 40.1875 C 42.617188 40.164062 43.136719 40.238281 43.6875 40.1875 Z M 43.6875 40.1875 "/>
<path style=" stroke:none;fill-rule:nonzero;fill:rgb(27.058825%,74.509805%,79.215688%);fill-opacity:1;" d="M 33.875 40.125 C 37.074219 39.816406 40.4375 40.226562 43.6875 40.0625 C 43.6875 39.75 43.6875 39.4375 43.6875 39.125 C 40.144531 39.125 36.605469 39.125 33.0625 39.125 C 33.0625 39.457031 33.0625 39.792969 33.0625 40.125 C 33.332031 40.125 33.605469 40.125 33.875 40.125 Z M 33.875 40.125 "/>
<path style=" stroke:none;fill-rule:nonzero;fill:rgb(28.235295%,62.7451%,69.803923%);fill-opacity:1;" d="M 33.875 40.125 C 35.507812 40.125 37.183594 40.070312 38.8125 40.125 C 40.441406 40.179688 42.070312 39.980469 43.6875 40.125 C 43.828125 39.933594 43.773438 39.382812 43.75 39.125 C 43.75 39.125 43.71875 39.125 43.6875 39.125 C 43.6875 39.4375 43.6875 39.75 43.6875 40.0625 C 40.4375 40.226562 37.074219 39.816406 33.875 40.125 Z M 33.875 40.125 "/>
<path style=" stroke:none;fill-rule:nonzero;fill:rgb(25.882354%,56.862748%,80.784315%);fill-opacity:1;" d="M 56.6875 39.25 C 56.832031 39.480469 56.710938 39.84375 56.75 40.125 C 56.851562 40.132812 56.960938 40.113281 57.0625 40.125 C 60.375 40.207031 63.824219 39.933594 67.1875 40.0625 C 67.1875 39.75 67.1875 39.4375 67.1875 39.125 C 66.605469 39.125 66.019531 39.121094 65.4375 39.125 C 64.855469 39.128906 64.265625 39.117188 63.6875 39.125 C 63.109375 39.132812 62.511719 39.105469 61.9375 39.125 C 61.363281 39.144531 60.75 39.082031 60.1875 39.125 C 59.625 39.167969 58.976562 39.027344 58.4375 39.125 C 57.898438 39.222656 57.175781 38.910156 56.6875 39.125 C 56.671875 39.148438 56.6875 39.21875 56.6875 39.25 Z M 56.6875 39.25 "/>
<path style=" stroke:none;fill-rule:nonzero;fill:rgb(26.274511%,47.450981%,69.01961%);fill-opacity:1;" d="M 57.0625 40.125 C 60.457031 40.125 63.855469 40.125 67.25 40.125 C 67.25 39.792969 67.25 39.457031 67.25 39.125 C 67.25 39.125 67.21875 39.125 67.1875 39.125 C 67.1875 39.4375 67.1875 39.75 67.1875 40.0625 C 63.824219 39.933594 60.375 40.207031 57.0625 40.125 Z M 57.0625 40.125 "/>
<path style=" stroke:none;fill-rule:nonzero;fill:rgb(99.607843%,99.607843%,99.607843%);fill-opacity:1;" d="M 72.5 50.8125 C 72.695312 49.570312 72.5 48.136719 72.5 46.875 C 72.5 46.582031 72.5 46.292969 72.5 46 C 69.96875 45.585938 67.726562 43.367188 67.375 40.8125 C 66.707031 40.808594 66.046875 40.820312 65.375 40.8125 C 64.703125 40.804688 64.046875 40.828125 63.375 40.8125 C 62.703125 40.796875 62.054688 40.84375 61.375 40.8125 C 60.695312 40.78125 60.070312 40.875 59.375 40.8125 C 58.679688 40.75 58.105469 40.953125 57.375 40.8125 C 56.644531 40.671875 56.492188 41.179688 56.375 41.75 C 56.253906 42.316406 55.992188 42.660156 55.734375 43.109375 C 55.480469 43.558594 55.199219 43.867188 54.859375 44.234375 C 54.519531 44.601562 54.136719 44.824219 53.730469 45.105469 C 53.324219 45.386719 52.855469 45.582031 52.378906 45.753906 C 51.90625 45.925781 51.273438 46.042969 50.75 46.0625 C 50.429688 46.109375 50.0625 46.09375 49.75 46.0625 C 46.914062 45.964844 44.261719 43.628906 43.875 40.8125 C 40.230469 40.8125 36.582031 40.8125 32.9375 40.8125 C 32.585938 43.398438 30.324219 45.558594 27.8125 46.0625 C 27.8125 47.730469 27.8125 49.394531 27.8125 51.0625 C 30.335938 51.488281 32.59375 53.6875 32.9375 56.25 C 36.582031 56.25 40.230469 56.25 43.875 56.25 C 44.308594 53.15625 47.207031 51.003906 50.25 51 C 53.292969 50.996094 56.128906 53.195312 56.625 56.25 C 60.207031 56.25 63.792969 56.25 67.375 56.25 C 67.722656 53.671875 69.984375 51.527344 72.5 51.0625 C 72.515625 50.984375 72.476562 50.890625 72.5 50.8125 Z M 72.5 50.8125 "/>
<path style=" stroke:none;fill-rule:nonzero;fill:rgb(29.019609%,20%,18.431373%);fill-opacity:1;" d="M 31.8125 42.1875 C 32.042969 41.828125 32.160156 41.574219 32.1875 41.1875 C 32.101562 41.535156 31.964844 41.863281 31.8125 42.1875 Z M 31.8125 42.1875 "/>
<path style=" stroke:none;fill-rule:nonzero;fill:rgb(29.803923%,20.392157%,19.215687%);fill-opacity:1;" d="M 21.5625 42.5625 C 21.394531 42.222656 21.296875 41.792969 21.0625 41.5 C 21.128906 41.855469 21.226562 42.355469 21.5625 42.5625 Z M 21.5625 42.5625 "/>
<path style=" stroke:none;fill-rule:nonzero;fill:rgb(31.764707%,22.352941%,18.039216%);fill-opacity:1;" d="M 24.125 44.9375 C 23.851562 44.5 23.0625 44.378906 22.703125 43.921875 C 22.34375 43.464844 21.953125 43.089844 21.625 42.625 C 21.550781 43.019531 22.316406 43.660156 22.640625 43.984375 C 22.964844 44.308594 23.625 44.925781 24.125 44.9375 Z M 24.125 44.9375 "/>
<path style=" stroke:none;fill-rule:nonzero;fill:rgb(31.764707%,22.745098%,18.039216%);fill-opacity:1;" d="M 28.3125 45.25 C 29.523438 45.050781 31.023438 43.90625 31.5625 42.75 C 31.199219 43.332031 30.652344 43.730469 30.171875 44.234375 C 29.691406 44.738281 28.804688 44.828125 28.3125 45.25 Z M 28.3125 45.25 "/>
<path style=" stroke:none;fill-rule:nonzero;fill:rgb(34.509805%,24.705882%,18.431373%);fill-opacity:1;" d="M 25.4375 45.375 C 25.46875 45.375 25.5 45.375 25.5 45.375 C 25.25 45.191406 24.519531 44.992188 24.1875 44.9375 C 24.398438 45.210938 25.09375 45.367188 25.4375 45.375 Z M 25.4375 45.375 "/>
<path style=" stroke:none;fill-rule:nonzero;fill:rgb(32.941177%,22.745098%,16.470589%);fill-opacity:1;" d="M 27.5 45.4375 C 27.519531 45.453125 27.59375 45.445312 27.625 45.4375 C 27.828125 45.390625 28.09375 45.378906 28.25 45.25 C 27.972656 45.257812 27.734375 45.386719 27.5 45.4375 Z M 27.5 45.4375 "/>
<path style=" stroke:none;fill-rule:nonzero;fill:rgb(24.705882%,18.82353%,21.176471%);fill-opacity:1;" d="M 27.625 45.4375 C 27.59375 45.445312 27.519531 45.453125 27.5 45.4375 C 27.476562 45.417969 27.34375 45.4375 27.3125 45.4375 C 26.914062 45.523438 26.394531 45.519531 26 45.4375 C 25.828125 45.421875 25.691406 45.355469 25.5 45.375 C 25.5 45.375 25.46875 45.375 25.4375 45.375 C 25.503906 45.695312 26.230469 45.492188 26.5 45.5625 C 26.769531 45.632812 27.375 45.503906 27.625 45.4375 Z M 27.625 45.4375 "/>
<path style=" stroke:none;fill-rule:nonzero;fill:rgb(27.450982%,55.686277%,63.921571%);fill-opacity:1;" d="M 49.6875 45.4375 C 50.042969 45.4375 50.394531 45.4375 50.75 45.4375 C 50.425781 45.300781 50.007812 45.429688 49.6875 45.4375 Z M 49.6875 45.4375 "/>
<path style=" stroke:none;fill-rule:nonzero;fill:rgb(36.862746%,28.235295%,18.431373%);fill-opacity:1;" d="M 27.3125 45.4375 C 26.878906 45.4375 26.429688 45.476562 26 45.4375 C 26.394531 45.519531 26.914062 45.523438 27.3125 45.4375 Z M 27.3125 45.4375 "/>
<path style=" stroke:none;fill-rule:nonzero;fill:rgb(14.509805%,23.137255%,34.117648%);fill-opacity:1;" d="M 50.875 45.4375 C 50.84375 45.441406 50.78125 45.4375 50.75 45.4375 C 50.394531 45.4375 50.042969 45.4375 49.6875 45.4375 C 50.050781 45.503906 50.507812 45.523438 50.875 45.4375 Z M 50.875 45.4375 "/>
<path style=" stroke:none;fill-rule:nonzero;fill:rgb(52.941179%,51.372552%,58.039218%);fill-opacity:1;" d="M 50.75 46.0625 C 50.417969 46.074219 50.082031 46.0625 49.75 46.0625 C 50.0625 46.09375 50.429688 46.109375 50.75 46.0625 Z M 50.75 46.0625 "/>
<path style=" stroke:none;fill-rule:nonzero;fill:rgb(45.09804%,34.117648%,21.960784%);fill-opacity:1;" d="M 74.3125 51 C 74.269531 50.429688 74.371094 49.816406 74.3125 49.25 C 74.253906 48.683594 74.421875 48.046875 74.3125 47.5 C 74.203125 46.953125 74.679688 46.222656 74 46.0625 C 73.320312 45.902344 73.019531 46.257812 73.125 46.9375 C 73.230469 47.617188 73.109375 48.027344 73.125 48.6875 C 73.140625 49.347656 73.1875 49.742188 73.125 50.4375 C 73.0625 51.132812 73.707031 51.042969 74.3125 51 Z M 74.3125 51 "/>
<path style=" stroke:none;fill-rule:nonzero;fill:rgb(91.37255%,36.470589%,37.64706%);fill-opacity:1;" d="M 27.125 46.125 C 26.769531 46.125 26.417969 46.125 26.0625 46.125 C 26.0625 47.730469 26.0625 49.332031 26.0625 50.9375 C 26.417969 50.9375 26.769531 50.9375 27.125 50.9375 C 27.125 49.332031 27.125 47.730469 27.125 46.125 Z M 27.125 46.125 "/>
<path style=" stroke:none;fill-rule:nonzero;fill:rgb(97.647059%,74.901962%,31.37255%);fill-opacity:1;" d="M 74.25 46.125 C 73.894531 46.125 73.542969 46.125 73.1875 46.125 C 73.1875 47.730469 73.1875 49.332031 73.1875 50.9375 C 73.542969 50.9375 73.894531 50.9375 74.25 50.9375 C 74.25 49.332031 74.25 47.730469 74.25 46.125 Z M 74.25 46.125 "/>
<path style=" stroke:none;fill-rule:nonzero;fill:rgb(45.09804%,44.313726%,49.803922%);fill-opacity:1;" d="M 72.5 50.8125 C 72.667969 50.222656 72.519531 49.457031 72.5625 48.8125 C 72.605469 48.167969 72.558594 47.472656 72.5 46.875 C 72.5 48.136719 72.695312 49.570312 72.5 50.8125 Z M 72.5 50.8125 "/>
<path style=" stroke:none;fill-rule:nonzero;fill:rgb(36.078432%,25.882354%,20.392157%);fill-opacity:1;" d="M 72.9375 51.6875 C 73.582031 51.625 74.179688 51.640625 74.8125 51.75 C 74.25 51.574219 73.585938 51.535156 72.9375 51.6875 Z M 72.9375 51.6875 "/>
<path style=" stroke:none;fill-rule:nonzero;fill:rgb(94.117647%,34.117648%,36.862746%);fill-opacity:1;" d="M 20.875 57 C 20.871094 57.269531 20.875 57.542969 20.875 57.8125 C 20.875 60.816406 23.726562 63.179688 26.625 63.1875 C 29.523438 63.195312 32.261719 60.769531 32.375 57.8125 C 32.386719 57.542969 32.386719 57.269531 32.375 57 C 32.261719 54.039062 29.542969 51.632812 26.625 51.625 C 23.707031 51.617188 20.933594 54.003906 20.875 57 Z M 20.875 57 "/>
<path style=" stroke:none;fill-rule:nonzero;fill:rgb(55.686277%,29.803923%,26.274511%);fill-opacity:1;" d="M 49.625 51.6875 C 50.183594 51.675781 50.777344 51.644531 51.3125 51.75 C 50.789062 51.585938 50.171875 51.621094 49.625 51.6875 Z M 49.625 51.6875 "/>
<path style=" stroke:none;fill-rule:nonzero;fill:rgb(97.254902%,73.725492%,29.411766%);fill-opacity:1;" d="M 72.9375 51.6875 C 72.261719 51.753906 71.691406 52.039062 71.0625 52.25 C 70.804688 52.375 70.484375 52.582031 70.25 52.75 C 70.171875 52.828125 70.121094 52.90625 70 52.9375 C 69.859375 53.277344 69.28125 53.78125 69 54 C 68.988281 54.019531 68.945312 54.046875 68.9375 54.0625 C 68.84375 54.25 68.730469 54.433594 68.625 54.625 C 68.5 54.855469 68.335938 55.148438 68.25 55.375 C 68.230469 55.464844 68.210938 55.539062 68.1875 55.625 C 68.101562 55.953125 68.027344 56.320312 67.9375 56.625 C 67.9375 56.65625 67.9375 56.71875 67.9375 56.75 C 67.9375 57.609375 67.980469 58.386719 68.1875 59.1875 C 68.210938 59.273438 68.230469 59.347656 68.25 59.4375 C 68.636719 60.453125 69.585938 61.730469 70.5625 62.3125 C 71.261719 62.640625 71.996094 62.996094 72.75 63.125 C 73.335938 63.222656 74.042969 63.242188 74.625 63.125 C 74.679688 63.113281 74.789062 63.078125 74.875 63.0625 C 75.195312 63.011719 75.492188 62.871094 75.8125 62.8125 C 75.8125 62.8125 75.84375 62.816406 75.875 62.8125 C 76.144531 62.59375 76.511719 62.5 76.8125 62.3125 C 76.910156 62.230469 77.015625 62.1875 77.125 62.125 C 77.542969 61.828125 78.074219 61.289062 78.375 60.875 C 79.015625 59.984375 79.457031 58.917969 79.5 57.8125 C 79.523438 57.222656 79.492188 56.621094 79.375 56.0625 C 78.984375 55.027344 78.613281 54.046875 77.734375 53.265625 C 76.855469 52.484375 75.960938 51.945312 74.8125 51.75 C 74.179688 51.640625 73.582031 51.625 72.9375 51.6875 Z M 72.9375 51.6875 "/>
<path style=" stroke:none;fill-rule:nonzero;fill:rgb(95.294118%,45.490196%,24.313726%);fill-opacity:1;" d="M 55.125 54.25 C 54.832031 53.847656 54.425781 53.425781 54.0625 53.0625 C 53.246094 52.363281 52.351562 51.953125 51.3125 51.75 C 50.777344 51.644531 50.183594 51.675781 49.625 51.6875 C 46.066406 51.757812 43.671875 55.71875 44.6875 59 C 45.707031 62.277344 49.457031 64.171875 52.683594 62.621094 C 55.910156 61.066406 56.871094 57.289062 55.125 54.25 Z M 55.125 54.25 "/>
<path style=" stroke:none;fill-rule:nonzero;fill:rgb(32.156864%,22.352941%,20%);fill-opacity:1;" d="M 70.25 52.75 C 70.484375 52.582031 70.804688 52.375 71.0625 52.25 C 70.722656 52.363281 70.507812 52.488281 70.25 52.75 Z M 70.25 52.75 "/>
<path style=" stroke:none;fill-rule:nonzero;fill:rgb(23.921569%,16.078432%,16.470589%);fill-opacity:1;" d="M 68.9375 54.0625 C 68.945312 54.046875 68.988281 54.019531 69 54 C 69.25 53.597656 69.667969 53.324219 69.9375 52.9375 C 69.550781 53.125 69.109375 53.707031 68.9375 54.0625 Z M 68.9375 54.0625 "/>
<path style=" stroke:none;fill-rule:nonzero;fill:rgb(55.686277%,43.137255%,28.627452%);fill-opacity:1;" d="M 69 54 C 69.28125 53.78125 69.859375 53.277344 70 52.9375 C 70 52.9375 69.960938 52.925781 69.9375 52.9375 C 69.667969 53.324219 69.25 53.597656 69 54 Z M 69 54 "/>
<path style=" stroke:none;fill-rule:nonzero;fill:rgb(56.078434%,30.588236%,27.058825%);fill-opacity:1;" d="M 55.125 54.25 C 54.863281 53.796875 54.46875 53.410156 54.0625 53.0625 C 54.425781 53.425781 54.832031 53.847656 55.125 54.25 Z M 55.125 54.25 "/>
<path style=" stroke:none;fill-rule:nonzero;fill:rgb(31.764707%,22.745098%,17.254902%);fill-opacity:1;" d="M 68.25 55.375 C 68.335938 55.148438 68.5 54.855469 68.625 54.625 C 68.457031 54.867188 68.316406 55.070312 68.25 55.375 Z M 68.25 55.375 "/>
<path style=" stroke:none;fill-rule:nonzero;fill:rgb(31.37255%,22.745098%,18.431373%);fill-opacity:1;" d="M 67.9375 56.625 C 68.027344 56.320312 68.101562 55.953125 68.1875 55.625 C 68.050781 55.933594 67.910156 56.246094 67.9375 56.625 Z M 67.9375 56.625 "/>
<path style=" stroke:none;fill-rule:nonzero;fill:rgb(32.156864%,24.313726%,21.568628%);fill-opacity:1;" d="M 79.5 57.8125 C 79.582031 57.246094 79.578125 56.601562 79.375 56.0625 C 79.492188 56.621094 79.523438 57.222656 79.5 57.8125 Z M 79.5 57.8125 "/>
<path style=" stroke:none;fill-rule:nonzero;fill:rgb(32.549021%,23.529412%,18.431373%);fill-opacity:1;" d="M 68.1875 59.1875 C 67.980469 58.386719 67.9375 57.609375 67.9375 56.75 C 67.65625 57.414062 67.933594 58.574219 68.1875 59.1875 Z M 68.1875 59.1875 "/>
<path style=" stroke:none;fill-rule:nonzero;fill:rgb(26.274511%,13.333334%,24.313726%);fill-opacity:1;" d="M 33.125 56.875 C 33.5625 56.875 33.996094 56.875 34.4375 56.875 C 34.878906 56.875 35.308594 56.875 35.75 56.875 C 36.191406 56.875 36.683594 56.871094 37.125 56.875 C 37.566406 56.878906 38.003906 56.867188 38.4375 56.875 C 38.871094 56.882812 39.324219 56.859375 39.75 56.875 C 40.175781 56.890625 40.722656 56.839844 41.125 56.875 C 41.527344 56.910156 42.09375 56.792969 42.4375 56.875 C 42.78125 56.957031 43.5625 56.671875 43.75 56.9375 C 43.800781 57.011719 43.800781 57.863281 43.75 57.9375 C 43.566406 58.199219 42.851562 57.925781 42.5 58 C 42.148438 58.074219 41.527344 57.964844 41.125 58 C 40.722656 58.035156 40.242188 57.984375 39.8125 58 C 39.382812 58.015625 38.875 57.992188 38.4375 58 C 38 58.007812 37.570312 57.996094 37.125 58 C 36.679688 58.003906 36.199219 58 35.75 58 C 35.300781 58 34.886719 58 34.4375 58 C 33.988281 58 33.515625 58 33.0625 58 C 33.0625 57.644531 33.0625 57.292969 33.0625 56.9375 C 33.0625 56.90625 33.0625 56.875 33.0625 56.875 C 32.957031 56.914062 32.78125 58.113281 33.25 58.0625 C 33.71875 58.011719 34.363281 58.085938 34.875 58.0625 C 35.386719 58.039062 35.972656 58.070312 36.5 58.0625 C 37.027344 58.054688 37.585938 58.0625 38.125 58.0625 C 38.664062 58.0625 39.128906 58.054688 39.6875 58.0625 C 40.246094 58.070312 40.722656 58.039062 41.3125 58.0625 C 41.902344 58.085938 42.285156 58.007812 42.9375 58.0625 C 43.589844 58.117188 43.847656 58.046875 43.8125 57.3125 C 43.777344 56.578125 43.265625 56.839844 42.6875 56.8125 C 42.109375 56.785156 41.675781 56.820312 41.125 56.8125 C 40.574219 56.804688 40.042969 56.8125 39.5 56.8125 C 38.957031 56.8125 38.40625 56.800781 37.875 56.8125 C 37.34375 56.824219 36.765625 56.78125 36.25 56.8125 C 35.734375 56.84375 35.101562 56.738281 34.625 56.8125 C 34.148438 56.886719 33.488281 56.609375 33.125 56.875 Z M 33.125 56.875 "/>
<path style=" stroke:none;fill-rule:nonzero;fill:rgb(28.235295%,20%,20%);fill-opacity:1;" d="M 67.25 56.8125 C 66.964844 56.609375 66.296875 56.910156 65.9375 56.8125 C 65.578125 56.714844 65.078125 56.855469 64.6875 56.8125 C 64.296875 56.769531 63.84375 56.832031 63.4375 56.8125 C 63.03125 56.792969 62.605469 56.824219 62.1875 56.8125 C 61.769531 56.800781 61.363281 56.820312 60.9375 56.8125 C 60.511719 56.804688 60.128906 56.824219 59.6875 56.8125 C 59.246094 56.800781 58.910156 56.832031 58.4375 56.8125 C 57.964844 56.792969 57.730469 56.855469 57.1875 56.8125 C 56.644531 56.769531 56.660156 56.941406 56.625 57.5 C 56.589844 58.058594 56.875 58.113281 57.375 58.0625 C 57.875 58.011719 58.171875 58.085938 58.625 58.0625 C 59.078125 58.039062 59.441406 58.074219 59.875 58.0625 C 60.308594 58.050781 60.703125 58.066406 61.125 58.0625 C 61.546875 58.058594 61.964844 58.066406 62.375 58.0625 C 62.785156 58.058594 63.226562 58.066406 63.625 58.0625 C 64.023438 58.058594 64.503906 58.070312 64.875 58.0625 C 65.25 58.054688 65.808594 58.082031 66.125 58.0625 C 66.441406 58.042969 67.136719 58.144531 67.292969 57.980469 C 67.445312 57.816406 67.355469 56.886719 67.25 56.8125 Z M 67.25 56.8125 "/>
<path style=" stroke:none;fill-rule:nonzero;fill:rgb(44.705883%,21.568628%,30.19608%);fill-opacity:1;" d="M 33.0625 56.9375 C 33.078125 56.953125 33.125 56.9375 33.125 56.9375 C 36.667969 56.9375 40.207031 56.9375 43.75 56.9375 C 43.5625 56.671875 42.78125 56.957031 42.4375 56.875 C 42.09375 56.792969 41.527344 56.910156 41.125 56.875 C 40.722656 56.839844 40.175781 56.890625 39.75 56.875 C 39.324219 56.859375 38.871094 56.882812 38.4375 56.875 C 38.003906 56.867188 37.566406 56.878906 37.125 56.875 C 36.683594 56.871094 36.191406 56.875 35.75 56.875 C 35.308594 56.875 34.878906 56.875 34.4375 56.875 C 33.996094 56.875 33.5625 56.875 33.125 56.875 C 33.125 56.875 33.078125 56.859375 33.0625 56.875 C 33.0625 56.875 33.0625 56.90625 33.0625 56.9375 Z M 33.0625 56.9375 "/>
<path style=" stroke:none;fill-rule:nonzero;fill:rgb(60.392159%,25.882354%,30.980393%);fill-opacity:1;" d="M 43.75 57.9375 C 40.207031 57.9375 36.667969 57.9375 33.125 57.9375 C 33.125 57.605469 33.125 57.269531 33.125 56.9375 C 33.125 56.9375 33.078125 56.953125 33.0625 56.9375 C 33.0625 57.292969 33.0625 57.644531 33.0625 58 C 33.515625 58 33.988281 58 34.4375 58 C 34.886719 58 35.300781 58 35.75 58 C 36.199219 58 36.679688 58.003906 37.125 58 C 37.570312 57.996094 38 58.007812 38.4375 58 C 38.875 57.992188 39.382812 58.015625 39.8125 58 C 40.242188 57.984375 40.722656 58.035156 41.125 58 C 41.527344 57.964844 42.148438 58.074219 42.5 58 C 42.851562 57.925781 43.566406 58.199219 43.75 57.9375 Z M 43.75 57.9375 "/>
<path style=" stroke:none;fill-rule:nonzero;fill:rgb(93.725491%,35.686275%,36.470589%);fill-opacity:1;" d="M 43.75 57.9375 C 43.800781 57.863281 43.800781 57.011719 43.75 56.9375 C 40.207031 56.9375 36.667969 56.9375 33.125 56.9375 C 33.125 57.269531 33.125 57.605469 33.125 57.9375 C 36.667969 57.9375 40.207031 57.9375 43.75 57.9375 Z M 43.75 57.9375 "/>
<path style=" stroke:none;fill-rule:nonzero;fill:rgb(60.000002%,45.882353%,26.274511%);fill-opacity:1;" d="M 67.25 57.9375 C 67.25 57.941406 67.1875 57.9375 67.1875 57.9375 C 63.707031 57.9375 60.230469 57.9375 56.75 57.9375 C 56.75 57.605469 56.75 57.269531 56.75 56.9375 C 56.605469 57.230469 56.726562 57.65625 56.6875 58 C 57.199219 58 57.742188 58 58.25 58 C 58.757812 58 59.246094 58.003906 59.75 58 C 60.253906 57.996094 60.75 58.007812 61.25 58 C 61.75 57.992188 62.320312 58.015625 62.8125 58 C 63.304688 57.984375 63.847656 58.039062 64.3125 58 C 64.777344 57.960938 65.394531 58.085938 65.8125 58 C 66.230469 57.914062 66.976562 58.222656 67.25 57.9375 Z M 67.25 57.9375 "/>
<path style=" stroke:none;fill-rule:nonzero;fill:rgb(98.039216%,73.333335%,30.19608%);fill-opacity:1;" d="M 67.1875 57.9375 C 67.15625 57.605469 67.210938 57.269531 67.1875 56.9375 C 66.894531 56.734375 66.246094 57.03125 65.875 56.9375 C 65.503906 56.84375 64.96875 56.976562 64.5625 56.9375 C 64.15625 56.898438 63.671875 56.953125 63.25 56.9375 C 62.828125 56.921875 62.363281 56.9375 61.9375 56.9375 C 61.511719 56.9375 61.046875 56.921875 60.625 56.9375 C 60.203125 56.953125 59.71875 56.902344 59.3125 56.9375 C 58.90625 56.972656 58.371094 56.851562 58 56.9375 C 57.628906 57.023438 57.035156 56.738281 56.75 56.9375 C 56.75 57.269531 56.75 57.605469 56.75 57.9375 C 60.230469 57.9375 63.707031 57.9375 67.1875 57.9375 Z M 67.1875 57.9375 "/>
<path style=" stroke:none;fill-rule:nonzero;fill:rgb(78.823531%,65.882355%,46.27451%);fill-opacity:1;" d="M 67.1875 57.9375 C 67.1875 57.9375 67.25 57.941406 67.25 57.9375 C 67.265625 57.75 67.335938 57.042969 67.1875 56.9375 C 67.210938 57.269531 67.15625 57.605469 67.1875 57.9375 Z M 67.1875 57.9375 "/>
<path style=" stroke:none;fill-rule:nonzero;fill:rgb(60.392159%,25.490198%,32.156864%);fill-opacity:1;" d="M 20.875 57.8125 C 20.875 57.542969 20.871094 57.269531 20.875 57 C 20.84375 57.257812 20.851562 57.554688 20.875 57.8125 Z M 20.875 57.8125 "/>
<path style=" stroke:none;fill-rule:nonzero;fill:rgb(51.372552%,23.529412%,30.19608%);fill-opacity:1;" d="M 32.375 57.8125 C 32.414062 57.550781 32.414062 57.265625 32.375 57 C 32.386719 57.269531 32.386719 57.542969 32.375 57.8125 Z M 32.375 57.8125 "/>
<path style=" stroke:none;fill-rule:nonzero;fill:rgb(55.686277%,54.901963%,60.392159%);fill-opacity:1;" d="M 32.9375 58.6875 C 33.207031 58.492188 33.84375 58.78125 34.1875 58.6875 C 34.53125 58.59375 34.996094 58.726562 35.375 58.6875 C 35.753906 58.648438 36.230469 58.707031 36.625 58.6875 C 37.019531 58.667969 37.410156 58.695312 37.8125 58.6875 C 38.214844 58.679688 38.660156 58.691406 39.0625 58.6875 C 39.464844 58.683594 39.84375 58.6875 40.25 58.6875 C 40.65625 58.6875 41.097656 58.6875 41.5 58.6875 C 41.902344 58.6875 42.289062 58.6875 42.6875 58.6875 C 43.085938 58.6875 43.476562 58.6875 43.875 58.6875 C 43.550781 58.402344 42.765625 58.714844 42.3125 58.625 C 41.859375 58.535156 41.238281 58.660156 40.75 58.625 C 40.261719 58.589844 39.691406 58.632812 39.1875 58.625 C 38.683594 58.617188 38.066406 58.617188 37.5625 58.625 C 37.058594 58.632812 36.480469 58.589844 36 58.625 C 35.519531 58.660156 34.867188 58.535156 34.4375 58.625 C 34.007812 58.714844 33.222656 58.394531 32.9375 58.6875 Z M 32.9375 58.6875 "/>
<path style=" stroke:none;fill-rule:nonzero;fill:rgb(56.078434%,54.509807%,61.176473%);fill-opacity:1;" d="M 56.5625 58.8125 C 56.851562 58.425781 57.8125 58.785156 58.3125 58.6875 C 58.8125 58.589844 59.566406 58.730469 60.125 58.6875 C 60.683594 58.644531 61.355469 58.707031 61.9375 58.6875 C 62.519531 58.667969 63.15625 58.695312 63.75 58.6875 C 64.34375 58.679688 64.964844 58.691406 65.5625 58.6875 C 66.160156 58.683594 66.773438 58.691406 67.375 58.6875 C 67.09375 58.390625 66.242188 58.722656 65.8125 58.625 C 65.382812 58.527344 64.730469 58.667969 64.25 58.625 C 63.769531 58.582031 63.191406 58.640625 62.6875 58.625 C 62.183594 58.609375 61.570312 58.625 61.0625 58.625 C 60.554688 58.625 59.992188 58.605469 59.5 58.625 C 59.007812 58.644531 58.390625 58.574219 57.9375 58.625 C 57.484375 58.675781 56.769531 58.421875 56.5625 58.8125 Z M 56.5625 58.8125 "/>
<path style=" stroke:none;fill-rule:nonzero;fill:rgb(32.156864%,21.568628%,18.039216%);fill-opacity:1;" d="M 70.5625 62.3125 C 69.585938 61.730469 68.636719 60.453125 68.25 59.4375 C 68.503906 60.515625 69.519531 61.824219 70.5625 62.3125 Z M 70.5625 62.3125 "/>
<path style=" stroke:none;fill-rule:nonzero;fill:rgb(38.039216%,27.450982%,18.039216%);fill-opacity:1;" d="M 77.125 62.125 C 77.566406 61.875 78.183594 61.25 78.375 60.875 C 78.074219 61.289062 77.542969 61.828125 77.125 62.125 Z M 77.125 62.125 "/>
<path style=" stroke:none;fill-rule:nonzero;fill:rgb(30.980393%,21.176471%,17.647059%);fill-opacity:1;" d="M 75.875 62.8125 C 76.253906 62.75 76.53125 62.546875 76.8125 62.3125 C 76.511719 62.5 76.144531 62.59375 75.875 62.8125 Z M 75.875 62.8125 "/>
<path style=" stroke:none;fill-rule:nonzero;fill:rgb(31.37255%,23.137255%,19.215687%);fill-opacity:1;" d="M 74.875 63.0625 C 75.15625 63.066406 75.550781 63.039062 75.8125 62.8125 C 75.492188 62.871094 75.195312 63.011719 74.875 63.0625 Z M 74.875 63.0625 "/>
<path style=" stroke:none;fill-rule:nonzero;fill:rgb(25.490198%,17.254902%,18.82353%);fill-opacity:1;" d="M 74.625 63.125 C 74.042969 63.242188 73.335938 63.222656 72.75 63.125 C 72.738281 63.121094 73.25 63.289062 73.625 63.25 C 74 63.210938 74.433594 63.238281 74.625 63.125 Z M 74.625 63.125 "/>
</g>
</svg>
